0
SECTION
2
ENTITIES
0
3DLINE
8
1
10
-2.09
20
0.74
30
0.93
11
-6.56
21
-2.67
31
3.52
0
3DLINE
8
1
10
-6.56
20
-2.67
30
3.52
11
-6.56
21
-3.08
31
3.31
0
3DLINE
8
1
10
-6.56
20
-3.08
30
3.31
11
-3.84
21
-1.15
31
1.47
0
3DLINE
8
1
10
-3.84
20
-1.15
30
1.47
11
-3.35
21
-0.79
31
1.14
0
3DLINE
8
1
10
-3.35
20
-0.79
30
1.14
11
-2.09
21
0.74
31
0.93
0
3DLINE
8
1
10
-3.62
20
-1.87
30
1.26
11
-3.78
21
-2.19
31
1.24
0
3DLINE
8
1
10
-3.78
20
-2.19
30
1.24
11
-4.01
21
-2.83
31
1.11
0
3DLINE
8
1
10
-4.01
20
-2.83
30
1.11
11
-3.8
21
-2.18
31
0.95
0
3DLINE
8
1
10
-3.8
20
-2.18
30
0.95
11
-3.67
21
-1.76
31
1.06
0
3DLINE
8
1
10
-3.67
20
-1.76
30
1.06
11
-3.62
21
-1.87
31
1.26
0
3DLINE
8
1
10
-1.16
20
-2.24
30
-2.56
11
-1.28
21
-2.85
31
-2.87
0
3DLINE
8
1
10
-1.28
20
-2.85
30
-2.87
11
-1.88
21
-6.19
31
-4.6
0
3DLINE
8
1
10
-1.88
20
-6.19
30
-4.6
11
-1.59
21
-5.97
31
-4.89
0
3DLINE
8
1
10
-1.59
20
-5.97
30
-4.89
11
-0.18
21
-0.53
31
-2.3
0
3DLINE
8
1
10
-0.18
20
-0.53
30
-2.3
11
-1.16
21
-2.24
31
-2.56
0
3DLINE
8
1
10
-1.7
20
-3.07
30
-2.28
11
-1.98
21
-3.39
31
-2.12
0
3DLINE
8
1
10
-1.98
20
-3.39
30
-2.12
11
-2.17
21
-4.02
31
-2.05
0
3DLINE
8
1
10
-2.17
20
-4.02
30
-2.05
11
-1.75
21
-3.54
31
-2.2
0
3DLINE
8
1
10
-1.75
20
-3.54
30
-2.2
11
-1.55
21
-3.25
31
-2.25
0
3DLINE
8
1
10
-1.55
20
-3.25
30
-2.25
11
-1.7
21
-3.07
31
-2.28
0
3DFACE
8
1
10
0.01
20
-0.01
30
0.04
11
1.7
21
2.34
31
0.11
12
1.54
22
2.44
32
0.29
13
-0.53
23
0.39
33
0.71
0
3DFACE
8
1
10
1.54
20
2.44
30
0.29
11
1.7
21
2.34
31
0.11
12
2.13
22
2.98
32
0.12
13
2.13
23
2.98
33
0.12
0
3DFACE
8
1
10
-1.95
20
-2.77
30
-0.04
11
0.01
21
-0.01
31
0.04
12
-0.53
22
0.39
32
0.71
13
-1.93
23
-0.8
33
1.13
0
3DFACE
8
1
10
-1.93
20
-0.8
30
1.13
11
-0.53
21
0.39
31
0.71
12
-0.72
22
1.09
32
1.04
13
-0.72
23
1.09
33
1.04
0
3DFACE
8
1
10
1.08
20
2.84
30
0.25
11
1.67
21
4.11
31
0
12
0.76
22
3.09
32
0.21
13
0.76
23
3.09
33
0.21
0
3DFACE
8
1
10
1.67
20
4.11
30
0
11
1.23
21
5.11
31
-0.19
12
0.68
22
4.05
32
0.04
13
0.71
23
3.83
33
0.08
0
3DFACE
8
1
10
-0.53
20
0.39
30
0.71
11
0.76
21
3.09
31
0.21
12
0.06
22
2.63
32
0.73
13
-0.72
23
1.09
33
1.04
0
3DFACE
8
1
10
1.54
20
2.44
30
0.29
11
2.13
21
2.98
31
0.12
12
1.08
22
2.84
32
0.25
13
1.08
23
2.84
33
0.25
0
3DFACE
8
1
10
2.13
20
2.98
30
0.12
11
1.67
21
4.11
31
0
12
1.08
22
2.84
32
0.25
13
1.08
23
2.84
33
0.25
0
3DFACE
8
1
10
2.13
20
2.98
30
0.12
11
2.05
21
4.16
31
-0.12
12
1.67
22
4.11
32
0
13
1.67
23
4.11
33
0
0
3DFACE
8
1
10
0.76
20
3.09
30
0.21
11
1.67
21
4.11
31
0
12
0.71
22
3.83
32
0.08
13
0.71
23
3.83
33
0.08
0
3DFACE
8
1
10
0.71
20
3.83
30
0.08
11
0.68
21
4.05
31
0.04
12
-0.15
22
3.58
32
0.59
13
-0.04
23
3.31
33
0.62
0
3DFACE
8
1
10
0.68
20
4.05
30
0.04
11
1.23
21
5.11
31
-0.19
12
-0.15
22
3.58
32
0.59
13
-0.15
23
3.58
33
0.59
0
3DFACE
8
1
10
0.06
20
2.63
30
0.73
11
-0.14
21
3.18
31
0.66
12
-0.81
22
2.62
32
0.88
13
-0.81
23
2.62
33
0.88
0
3DFACE
8
1
10
-0.14
20
3.18
30
0.66
11
-0.15
21
3.58
31
0.59
12
-0.81
22
2.62
32
0.88
13
-0.81
23
2.62
33
0.88
0
3DFACE
8
1
10
-0.15
20
3.58
30
0.59
11
-0.14
21
3.18
31
0.66
12
-0.04
22
3.31
32
0.62
13
-0.04
23
3.31
33
0.62
0
3DFACE
8
1
10
0.06
20
2.63
30
0.73
11
-0.81
21
2.62
31
0.88
12
-1.89
22
1.12
32
1.3
13
-0.72
23
1.09
33
1.04
0
3DFACE
8
1
10
1.54
20
2.44
30
0.29
11
1.08
21
2.84
31
0.25
12
-0.53
22
0.39
32
0.71
13
-0.53
23
0.39
33
0.71
0
3DFACE
8
1
10
1.08
20
2.84
30
0.25
11
0.76
21
3.09
31
0.21
12
-0.53
22
0.39
32
0.71
13
-0.53
23
0.39
33
0.71
0
3DFACE
8
1
10
-1.93
20
-0.8
30
1.13
11
-2.68
21
-0.3
31
1.37
12
-3.04
22
-0.96
32
1.36
13
-3.04
23
-0.96
33
1.36
0
3DFACE
8
1
10
-1.93
20
-0.8
30
1.13
11
-3.04
21
-0.96
31
1.36
12
-3.62
22
-1.87
32
1.26
13
-3.26
23
-2.03
33
1.17
0
3DFACE
8
1
10
-1.93
20
-0.8
30
1.13
11
-3.26
21
-2.03
31
1.17
12
-1.95
22
-2.77
32
-0.04
13
-1.95
23
-2.77
33
-0.04
0
3DFACE
8
1
10
2.18
20
4.62
30
-0.5
11
2.68
21
6.53
31
-0.95
12
1.89
22
5.82
32
-0.59
13
1.89
23
5.82
33
-0.59
0
3DFACE
8
1
10
2.01
20
4.69
30
-0.28
11
2.18
21
4.62
31
-0.5
12
1.89
22
5.82
32
-0.59
13
1.89
23
5.82
33
-0.59
0
3DFACE
8
1
10
2.18
20
4.62
30
-0.5
11
2.01
21
4.69
31
-0.28
12
2.05
22
4.16
32
-0.12
13
2.22
23
4.13
33
-0.28
0
3DFACE
8
1
10
2.05
20
4.16
30
-0.12
11
2.01
21
4.69
31
-0.28
12
1.23
22
5.11
32
-0.19
13
1.67
23
4.11
33
0
0
3DFACE
8
1
10
2.01
20
4.69
30
-0.28
11
1.89
21
5.82
31
-0.59
12
1.23
22
5.11
32
-0.19
13
1.23
23
5.11
33
-0.19
0
3DFACE
8
1
10
2.22
20
4.13
30
-0.28
11
2.05
21
4.16
31
-0.12
12
2.13
22
2.98
32
0.12
13
2.13
23
2.98
33
0.12
0
3DFACE
8
1
10
-3.26
20
-2.03
30
1.17
11
-3.62
21
-1.87
31
1.26
12
-3.73
22
-2.21
32
1.25
13
-3.55
23
-2.3
33
1.17
0
3DFACE
8
1
10
-3.55
20
-2.3
30
1.17
11
-3.73
21
-2.21
31
1.25
12
-4.01
22
-2.83
32
1.11
13
-4.01
23
-2.83
33
1.11
0
3DFACE
8
1
10
-4.01
20
-2.83
30
1.11
11
-3.69
21
-2.44
31
0.97
12
-3.55
22
-2.3
32
1.17
13
-3.55
23
-2.3
33
1.17
0
3DFACE
8
1
10
-3.31
20
-4.41
30
-0.2
11
-1.95
21
-2.77
31
-0.04
12
-2.71
22
-3.39
32
0.03
13
-2.71
23
-3.39
33
0.03
0
3DFACE
8
1
10
-3.31
20
-4.41
30
-0.2
11
-4.07
21
-5.13
31
-0.23
12
-4.04
22
-5.24
32
-0.3
13
-4.04
23
-5.24
33
-0.3
0
3DFACE
8
1
10
-2.71
20
-3.39
30
0.03
11
-3.99
21
-6.37
31
1.78
12
-4.4
22
-7
32
1.88
13
-3.31
23
-4.41
33
-0.2
0
3DFACE
8
1
10
-3.31
20
-4.41
30
-0.2
11
-4.4
21
-7
31
1.88
12
-4.67
22
-7.38
32
1.9
13
-4.04
23
-5.24
33
-0.3
0
3DFACE
8
1
10
-4.04
20
-5.24
30
-0.3
11
-4.67
21
-7.38
31
1.9
12
-4.74
22
-7.47
32
1.74
13
-4.29
23
-5.62
33
-0.24
0
3DFACE
8
1
10
-2.71
20
-3.39
30
0.03
11
-3.58
21
-4.14
31
0.04
12
-4.4
22
-7
32
1.88
13
-3.99
23
-6.37
33
1.78
0
3DFACE
8
1
10
-3.58
20
-4.14
30
0.04
11
-4.07
21
-5.13
31
-0.23
12
-4.67
22
-7.38
32
1.9
13
-4.4
23
-7
33
1.88
0
3DFACE
8
1
10
-4.07
20
-5.13
30
-0.23
11
-4.29
21
-5.62
31
-0.24
12
-4.74
22
-7.47
32
1.74
13
-4.67
23
-7.38
33
1.9
0
3DFACE
8
1
10
-1.95
20
-2.77
30
-0.04
11
-3.26
21
-2.03
31
1.17
12
-3.55
22
-2.3
32
1.17
13
-3.53
23
-3.23
33
0.61
0
3DFACE
8
1
10
-1.95
20
-2.77
30
-0.04
11
-3.53
21
-3.23
31
0.61
12
-2.71
22
-3.39
32
0.03
13
-2.71
23
-3.39
33
0.03
0
3DFACE
8
1
10
-3.76
20
-4.15
30
-0.03
11
-3.69
21
-2.44
31
0.97
12
-4.01
22
-2.83
32
1.11
13
-4.07
23
-5.13
33
-0.23
0
3DFACE
8
1
10
-3.76
20
-4.15
30
-0.03
11
-4.07
21
-5.13
31
-0.23
12
-3.58
22
-4.14
32
0.04
13
-3.58
23
-4.14
33
0.04
0
3DFACE
8
1
10
-2.71
20
-3.39
30
0.03
11
-3.53
21
-3.23
31
0.61
12
-3.58
22
-4.14
32
0.04
13
-3.58
23
-4.14
33
0.04
0
3DFACE
8
1
10
-0.81
20
2.62
30
0.88
11
-0.15
21
3.58
31
0.59
12
-0.89
22
2.89
32
0.97
13
-0.89
23
2.89
33
0.97
0
3DFACE
8
1
10
-1.89
20
1.12
30
1.3
11
-0.81
21
2.62
31
0.88
12
-0.89
22
2.89
32
0.97
13
-2.16
23
1.64
33
1.58
0
3DFACE
8
1
10
-0.72
20
1.09
30
1.04
11
-1.89
21
1.12
31
1.3
12
-2.24
22
0.46
32
1.33
13
-2.24
23
0.46
33
1.33
0
3DFACE
8
1
10
-0.72
20
1.09
30
1.04
11
-2.24
21
0.46
31
1.33
12
-2.68
22
-0.3
32
1.37
13
-1.93
23
-0.8
33
1.13
0
3DFACE
8
1
10
-1.89
20
1.12
30
1.3
11
-2.16
21
1.64
31
1.58
12
-6.5
22
-2.55
32
3.77
13
-6.44
23
-2.87
33
3.64
0
3DFACE
8
1
10
-1.89
20
1.12
30
1.3
11
-6.44
21
-2.87
31
3.64
12
-2.24
22
0.46
32
1.33
13
-2.24
23
0.46
33
1.33
0
3DFACE
8
1
10
-2.68
20
-0.3
30
1.37
11
-6.44
21
-2.87
31
3.64
12
-6.43
22
-3.17
32
3.46
13
-3.04
23
-0.96
33
1.36
0
3DFACE
8
1
10
-2.24
20
0.46
30
1.33
11
-6.44
21
-2.87
31
3.64
12
-2.68
22
-0.3
32
1.37
13
-2.68
23
-0.3
33
1.37
0
3DFACE
8
1
10
-3.04
20
-0.96
30
1.36
11
-6.43
21
-3.17
31
3.46
12
-6.45
22
-3.49
32
3.17
13
-3.62
23
-1.87
33
1.26
0
3DFACE
8
1
10
-6.44
20
-2.87
30
3.64
11
-6.5
21
-2.55
31
3.77
12
-6.8
22
-3.11
32
3.79
13
-6.8
23
-3.11
33
3.79
0
3DFACE
8
1
10
-6.44
20
-2.87
30
3.64
11
-6.8
21
-3.11
31
3.79
12
-6.79
22
-3.66
32
3.45
13
-6.43
23
-3.17
33
3.46
0
3DFACE
8
1
10
-6.43
20
-3.17
30
3.46
11
-6.79
21
-3.66
31
3.45
12
-6.45
22
-3.49
32
3.17
13
-6.45
23
-3.49
33
3.17
0
3DFACE
8
1
10
1.89
20
5.82
30
-0.59
11
2.68
21
6.53
31
-0.95
12
1.55
22
4.56
32
-0.84
13
1.55
23
4.56
33
-0.84
0
3DFACE
8
1
10
1.89
20
5.82
30
-0.59
11
1.55
21
4.56
31
-0.84
12
1.23
22
5.11
32
-0.19
13
1.23
23
5.11
33
-0.19
0
3DFACE
8
1
10
1.23
20
5.11
30
-0.19
11
1.55
21
4.56
31
-0.84
12
0.69
22
3.09
32
-0.77
13
-0.15
23
3.58
33
0.59
0
3DFACE
8
1
10
-0.15
20
3.58
30
0.59
11
0.69
21
3.09
31
-0.77
12
-0.89
22
2.89
32
0.97
13
-0.89
23
2.89
33
0.97
0
3DFACE
8
1
10
-0.89
20
2.89
30
0.97
11
0.69
21
3.09
31
-0.77
12
-2.09
22
0.74
32
0.93
13
-2.16
23
1.64
33
1.58
0
3DFACE
8
1
10
-2.16
20
1.64
30
1.58
11
-2.09
21
0.74
31
0.93
12
-6.56
22
-2.67
32
3.52
13
-6.5
23
-2.55
33
3.77
0
3DFACE
8
1
10
-6.5
20
-2.55
30
3.77
11
-6.56
21
-2.67
31
3.52
12
-6.8
22
-3.11
32
3.79
13
-6.8
23
-3.11
33
3.79
0
3DFACE
8
1
10
-6.56
20
-2.67
30
3.52
11
-6.56
21
-3.08
31
3.31
12
-6.79
22
-3.66
32
3.45
13
-6.8
23
-3.11
33
3.79
0
3DFACE
8
1
10
-6.45
20
-3.49
30
3.17
11
-6.79
21
-3.66
31
3.45
12
-6.56
22
-3.08
32
3.31
13
-6.56
23
-3.08
33
3.31
0
3DFACE
8
1
10
-3.35
20
-0.79
30
1.14
11
-3.59
21
-1.32
31
1.22
12
-3.84
22
-1.15
32
1.47
13
-3.84
23
-1.15
33
1.47
0
3DFACE
8
1
10
-3.26
20
-1.2
30
0.8
11
-3.57
21
-1.46
31
1.14
12
-3.59
22
-1.32
32
1.22
13
-3.35
23
-0.79
33
1.14
0
3DFACE
8
1
10
-3.59
20
-1.32
30
1.22
11
-3.57
21
-1.46
31
1.14
12
-3.62
22
-1.87
32
1.26
13
-3.84
23
-1.15
33
1.47
0
3DFACE
8
1
10
-3.62
20
-1.87
30
1.26
11
-3.57
21
-1.46
31
1.14
12
-3.67
22
-1.76
32
1.06
13
-3.67
23
-1.76
33
1.06
0
3DFACE
8
1
10
-3.84
20
-1.15
30
1.47
11
-3.62
21
-1.87
31
1.26
12
-6.45
22
-3.49
32
3.17
13
-6.56
23
-3.08
33
3.31
0
3DFACE
8
1
10
-2.09
20
0.74
30
0.93
11
-1.74
21
-1.06
31
-0.58
12
-3.35
22
-0.79
32
1.14
13
-3.35
23
-0.79
33
1.14
0
3DFACE
8
1
10
0.69
20
3.09
30
-0.77
11
-1.74
21
-1.06
31
-0.58
12
-2.09
22
0.74
32
0.93
13
-2.09
23
0.74
33
0.93
0
3DFACE
8
1
10
-1.74
20
-1.06
30
-0.58
11
-3.26
21
-1.2
31
0.8
12
-3.35
22
-0.79
32
1.14
13
-3.35
23
-0.79
33
1.14
0
3DFACE
8
1
10
-1.74
20
-1.06
30
-0.58
11
-3.19
21
-3.54
31
-0.47
12
-3.26
22
-1.2
32
0.8
13
-3.26
23
-1.2
33
0.8
0
3DFACE
8
1
10
-3.26
20
-1.2
30
0.8
11
-3.8
21
-2.18
31
0.95
12
-3.57
22
-1.46
32
1.14
13
-3.57
23
-1.46
33
1.14
0
3DFACE
8
1
10
-3.26
20
-1.2
30
0.8
11
-3.8
21
-2.18
31
0.95
12
-3.67
22
-1.76
32
1.06
13
-3.57
23
-1.46
33
1.14
0
3DFACE
8
1
10
-3.8
20
-2.18
30
0.95
11
-3.81
21
-4.59
31
-0.42
12
-4.19
22
-5.25
32
-0.39
13
-4.04
23
-2.78
33
1.11
0
3DFACE
8
1
10
-3.19
20
-3.54
30
-0.47
11
-3.81
21
-4.59
31
-0.42
12
-3.8
22
-2.18
32
0.95
13
-3.26
23
-1.2
33
0.8
0
3DFACE
8
1
10
1.7
20
2.34
30
0.11
11
0.01
21
-0.01
31
0.04
12
0.37
22
-0.21
32
-0.82
13
1.78
23
2.28
33
-0.12
0
3DFACE
8
1
10
1.7
20
2.34
30
0.11
11
1.78
21
2.28
31
-0.12
12
2.13
22
2.98
32
0.12
13
2.13
23
2.98
33
0.12
0
3DFACE
8
1
10
0.01
20
-0.01
30
0.04
11
-1.95
21
-2.77
31
-0.04
12
-0.41
22
-1.81
32
-1.43
13
0.37
23
-0.21
33
-0.82
0
3DFACE
8
1
10
0.37
20
-0.21
30
-0.82
11
-0.41
21
-1.81
31
-1.43
12
0.75
22
0.12
32
-1.44
13
0.75
23
0.12
33
-1.44
0
3DFACE
8
1
10
2.14
20
3.8
30
-0.79
11
1.63
21
2.48
31
-0.68
12
1.5
22
2.6
32
-1.05
13
1.5
23
2.6
33
-1.05
0
3DFACE
8
1
10
2.06
20
4.56
30
-1.6
11
2.14
21
3.8
31
-0.79
12
1.6
22
3.24
32
-1.43
13
1.62
23
3.42
33
-1.56
0
3DFACE
8
1
10
1.5
20
2.6
30
-1.05
11
0.37
21
-0.21
31
-0.82
12
0.75
22
0.12
32
-1.44
13
1.4
23
1.74
33
-1.53
0
3DFACE
8
1
10
2.13
20
2.98
30
0.12
11
1.78
21
2.28
31
-0.12
12
1.63
22
2.48
32
-0.68
13
1.63
23
2.48
33
-0.68
0
3DFACE
8
1
10
2.14
20
3.8
30
-0.79
11
2.13
21
2.98
31
0.12
12
1.63
22
2.48
32
-0.68
13
1.63
23
2.48
33
-0.68
0
3DFACE
8
1
10
2.26
20
4.02
30
-0.48
11
2.13
21
2.98
31
0.12
12
2.14
22
3.8
32
-0.79
13
2.14
23
3.8
33
-0.79
0
3DFACE
8
1
10
2.14
20
3.8
30
-0.79
11
1.5
21
2.6
31
-1.05
12
1.6
22
3.24
32
-1.43
13
1.6
23
3.24
33
-1.43
0
3DFACE
8
1
10
1.62
20
3.42
30
-1.56
11
1.6
21
3.24
31
-1.43
12
1.47
22
2.31
32
-1.93
13
1.47
23
2.51
33
-2.14
0
3DFACE
8
1
10
2.06
20
4.56
30
-1.6
11
1.62
21
3.42
31
-1.56
12
1.47
22
2.51
32
-2.14
13
1.47
23
2.51
33
-2.14
0
3DFACE
8
1
10
1.4
20
2.15
30
-1.95
11
1.4
21
1.74
31
-1.53
12
1.05
22
1.39
32
-2.26
13
1.05
23
1.39
33
-2.26
0
3DFACE
8
1
10
1.47
20
2.51
30
-2.14
11
1.4
21
2.15
31
-1.95
12
1.05
22
1.39
32
-2.26
13
1.05
23
1.39
33
-2.26
0
3DFACE
8
1
10
1.4
20
2.15
30
-1.95
11
1.47
21
2.51
31
-2.14
12
1.47
22
2.31
32
-1.93
13
1.47
23
2.31
33
-1.93
0
3DFACE
8
1
10
1.05
20
1.39
30
-2.26
11
1.4
21
1.74
31
-1.53
12
0.75
22
0.12
32
-1.44
13
0.33
23
-0.36
33
-2.46
0
3DFACE
8
1
10
1.63
20
2.48
30
-0.68
11
1.78
21
2.28
31
-0.12
12
0.37
22
-0.21
32
-0.82
13
0.37
23
-0.21
33
-0.82
0
3DFACE
8
1
10
1.5
20
2.6
30
-1.05
11
1.63
21
2.48
31
-0.68
12
0.37
22
-0.21
32
-0.82
13
0.37
23
-0.21
33
-0.82
0
3DFACE
8
1
10
-0.47
20
-1.77
30
-2.36
11
-0.41
21
-1.81
31
-1.43
12
-0.88
22
-2.4
32
-2.3
13
-0.88
23
-2.4
33
-2.3
0
3DFACE
8
1
10
-0.88
20
-2.4
30
-2.3
11
-0.41
21
-1.81
31
-1.43
12
-1.47
22
-3.22
32
-1.85
13
-1.55
23
-3.25
33
-2.25
0
3DFACE
8
1
10
-1.47
20
-3.22
30
-1.85
11
-0.41
21
-1.81
31
-1.43
12
-1.95
22
-2.77
32
-0.04
13
-1.95
23
-2.77
33
-0.04
0
3DFACE
8
1
10
2.68
20
6.53
30
-0.95
11
2.18
21
4.62
31
-0.5
12
2.32
22
5.53
32
-1.32
13
2.32
23
5.53
33
-1.32
0
3DFACE
8
1
10
2.18
20
4.62
30
-0.5
11
2.28
21
4.51
31
-0.74
12
2.32
22
5.53
32
-1.32
13
2.32
23
5.53
33
-1.32
0
3DFACE
8
1
10
2.28
20
4.51
30
-0.74
11
2.18
21
4.62
31
-0.5
12
2.22
22
4.13
32
-0.28
13
2.26
23
4.02
33
-0.48
0
3DFACE
8
1
10
2.28
20
4.51
30
-0.74
11
2.26
21
4.02
31
-0.48
12
2.14
22
3.8
32
-0.79
13
2.06
23
4.56
33
-1.6
0
3DFACE
8
1
10
2.32
20
5.53
30
-1.32
11
2.28
21
4.51
31
-0.74
12
2.06
22
4.56
32
-1.6
13
2.06
23
4.56
33
-1.6
0
3DFACE
8
1
10
2.26
20
4.02
30
-0.48
11
2.22
21
4.13
31
-0.28
12
2.13
22
2.98
32
0.12
13
2.13
23
2.98
33
0.12
0
3DFACE
8
1
10
-1.55
20
-3.25
30
-2.25
11
-1.47
21
-3.22
31
-1.85
12
-1.71
22
-3.52
32
-1.94
13
-1.72
23
-3.55
33
-2.15
0
3DFACE
8
1
10
-1.72
20
-3.55
30
-2.15
11
-1.71
21
-3.52
31
-1.94
12
-2.18
22
-4.07
32
-1.99
13
-2.18
23
-4.07
33
-1.99
0
3DFACE
8
1
10
-1.99
20
-3.57
30
-1.91
11
-2.18
21
-4.07
31
-1.99
12
-1.71
22
-3.52
32
-1.94
13
-1.71
23
-3.52
33
-1.94
0
3DFACE
8
1
10
-1.95
20
-2.77
30
-0.04
11
-3.31
21
-4.41
31
-0.2
12
-2.5
22
-3.53
32
-0.33
13
-2.5
23
-3.53
33
-0.33
0
3DFACE
8
1
10
-3.97
20
-5.2
30
-0.41
11
-3.31
21
-4.41
31
-0.2
12
-4.04
22
-5.24
32
-0.3
13
-4.04
23
-5.24
33
-0.3
0
3DFACE
8
1
10
-2.72
20
-7.21
30
-0.36
11
-2.5
21
-3.53
31
-0.33
12
-3.31
22
-4.41
32
-0.2
13
-3.06
23
-7.89
33
-0.39
0
3DFACE
8
1
10
-3.06
20
-7.89
30
-0.39
11
-3.31
21
-4.41
31
-0.2
12
-4.04
22
-5.24
32
-0.3
13
-3.31
23
-8.29
33
-0.41
0
3DFACE
8
1
10
-3.31
20
-8.29
30
-0.41
11
-4.04
21
-5.24
31
-0.3
12
-4.24
22
-5.65
32
-0.32
13
-3.5
23
-8.3
33
-0.36
0
3DFACE
8
1
10
-3.19
20
-4.4
30
-0.63
11
-2.5
21
-3.53
31
-0.33
12
-2.72
22
-7.21
32
-0.36
13
-3.06
23
-7.89
33
-0.39
0
3DFACE
8
1
10
-3.97
20
-5.2
30
-0.41
11
-3.19
21
-4.4
31
-0.63
12
-3.06
22
-7.89
32
-0.39
13
-3.31
23
-8.29
33
-0.41
0
3DFACE
8
1
10
-4.24
20
-5.65
30
-0.32
11
-3.97
21
-5.2
31
-0.41
12
-3.31
22
-8.29
32
-0.41
13
-3.5
23
-8.3
33
-0.36
0
3DFACE
8
1
10
-1.47
20
-3.22
30
-1.85
11
-1.95
21
-2.77
31
-0.04
12
-2.43
22
-3.96
32
-1.25
13
-1.71
23
-3.52
33
-1.94
0
3DFACE
8
1
10
-2.43
20
-3.96
30
-1.25
11
-1.95
21
-2.77
31
-0.04
12
-2.5
22
-3.53
32
-0.33
13
-2.5
23
-3.53
33
-0.33
0
3DFACE
8
1
10
-1.99
20
-3.57
30
-1.91
11
-3.34
21
-4.43
31
-0.74
12
-3.97
22
-5.2
32
-0.41
13
-2.18
23
-4.07
33
-1.99
0
3DFACE
8
1
10
-3.97
20
-5.2
30
-0.41
11
-3.34
21
-4.43
31
-0.74
12
-3.19
22
-4.4
32
-0.63
13
-3.19
23
-4.4
33
-0.63
0
3DFACE
8
1
10
-2.43
20
-3.96
30
-1.25
11
-2.5
21
-3.53
31
-0.33
12
-3.19
22
-4.4
32
-0.63
13
-3.19
23
-4.4
33
-0.63
0
3DFACE
8
1
10
1.47
20
2.51
30
-2.14
11
1.05
21
1.39
31
-2.26
12
1.16
22
1.53
32
-2.47
13
1.16
23
1.53
33
-2.47
0
3DFACE
8
1
10
1.05
20
1.39
30
-2.26
11
0.33
21
-0.36
31
-2.46
12
0.58
22
-0.21
32
-3.01
13
1.16
23
1.53
33
-2.47
0
3DFACE
8
1
10
0.33
20
-0.36
30
-2.46
11
0.75
21
0.12
31
-1.44
12
-0.03
22
-1.01
32
-2.4
13
-0.03
23
-1.01
33
-2.4
0
3DFACE
8
1
10
-0.03
20
-1.01
30
-2.4
11
0.75
21
0.12
31
-1.44
12
-0.41
22
-1.81
32
-1.43
13
-0.47
23
-1.77
33
-2.36
0
3DFACE
8
1
10
0.58
20
-0.21
30
-3.01
11
0.33
21
-0.36
31
-2.46
12
-1.49
22
-6.16
32
-4.73
13
-1.32
23
-5.99
33
-4.98
0
3DFACE
8
1
10
-1.49
20
-6.16
30
-4.73
11
0.33
21
-0.36
31
-2.46
12
-0.03
22
-1.01
32
-2.4
13
-0.03
23
-1.01
33
-2.4
0
3DFACE
8
1
10
-1.49
20
-6.16
30
-4.73
11
-0.47
21
-1.77
31
-2.36
12
-0.88
22
-2.4
32
-2.3
13
-1.72
23
-6.3
33
-4.5
0
3DFACE
8
1
10
-1.49
20
-6.16
30
-4.73
11
-0.03
21
-1.01
31
-2.4
12
-0.47
22
-1.77
32
-2.36
13
-0.47
23
-1.77
33
-2.36
0
3DFACE
8
1
10
-1.72
20
-6.3
30
-4.5
11
-0.88
21
-2.4
31
-2.3
12
-1.55
22
-3.25
32
-2.25
13
-2.06
23
-6.41
33
-4.26
0
3DFACE
8
1
10
-1.32
20
-5.99
30
-4.98
11
-1.49
21
-6.16
31
-4.73
12
-1.64
22
-6.54
32
-4.93
13
-1.64
23
-6.54
33
-4.93
0
3DFACE
8
1
10
-1.64
20
-6.54
30
-4.93
11
-1.49
21
-6.16
31
-4.73
12
-1.72
22
-6.3
32
-4.5
13
-2.07
23
-6.79
33
-4.53
0
3DFACE
8
1
10
-2.07
20
-6.79
30
-4.53
11
-1.72
21
-6.3
31
-4.5
12
-2.06
22
-6.41
32
-4.26
13
-2.06
23
-6.41
33
-4.26
0
3DFACE
8
1
10
2.68
20
6.53
30
-0.95
11
2.32
21
5.53
31
-1.32
12
1.55
22
4.56
32
-0.84
13
1.55
23
4.56
33
-0.84
0
3DFACE
8
1
10
1.55
20
4.56
30
-0.84
11
2.32
21
5.53
31
-1.32
12
2.06
22
4.56
32
-1.6
13
2.06
23
4.56
33
-1.6
0
3DFACE
8
1
10
1.55
20
4.56
30
-0.84
11
2.06
21
4.56
31
-1.6
12
1.47
22
2.51
32
-2.14
13
0.69
23
3.09
33
-0.77
0
3DFACE
8
1
10
0.69
20
3.09
30
-0.77
11
1.47
21
2.51
31
-2.14
12
1.16
22
1.53
32
-2.49
13
1.16
23
1.53
33
-2.49
0
3DFACE
8
1
10
0.69
20
3.09
30
-0.77
11
1.16
21
1.53
31
-2.49
12
0.58
22
-0.21
32
-3.01
13
-0.18
23
-0.53
33
-2.3
0
3DFACE
8
1
10
-0.18
20
-0.53
30
-2.3
11
0.58
21
-0.21
31
-3.01
12
-1.32
22
-5.99
32
-4.98
13
-1.59
23
-5.97
33
-4.89
0
3DFACE
8
1
10
-1.59
20
-5.97
30
-4.89
11
-1.32
21
-5.99
31
-4.98
12
-1.64
22
-6.54
32
-4.93
13
-1.64
23
-6.54
33
-4.93
0
3DFACE
8
1
10
-1.88
20
-6.19
30
-4.6
11
-1.59
21
-5.97
31
-4.89
12
-1.64
22
-6.54
32
-4.93
13
-2.07
23
-6.79
33
-4.53
0
3DFACE
8
1
10
-2.07
20
-6.79
30
-4.53
11
-2.06
21
-6.41
31
-4.26
12
-1.88
22
-6.19
32
-4.6
13
-1.88
23
-6.19
33
-4.6
0
3DFACE
8
1
10
-1.39
20
-2.78
30
-2.5
11
-1.16
21
-2.24
31
-2.56
12
-1.28
22
-2.85
32
-2.87
13
-1.28
23
-2.85
33
-2.87
0
3DFACE
8
1
10
-1.49
20
-2.84
30
-2.38
11
-1.51
21
-2.36
31
-2.16
12
-1.16
22
-2.24
32
-2.56
13
-1.39
23
-2.78
33
-2.5
0
3DFACE
8
1
10
-1.49
20
-2.84
30
-2.38
11
-1.39
21
-2.78
31
-2.5
12
-1.28
22
-2.85
32
-2.87
13
-1.55
23
-3.25
33
-2.25
0
3DFACE
8
1
10
-1.49
20
-2.84
30
-2.38
11
-1.55
21
-3.25
31
-2.25
12
-1.7
22
-3.07
32
-2.28
13
-1.7
23
-3.07
33
-2.28
0
3DFACE
8
1
10
-1.55
20
-3.25
30
-2.25
11
-1.28
21
-2.85
31
-2.87
12
-1.88
22
-6.19
32
-4.6
13
-2.06
23
-6.41
33
-4.26
0
3DFACE
8
1
10
-1.74
20
-1.06
30
-0.58
11
-0.18
21
-0.53
31
-2.3
12
-1.16
22
-2.24
32
-2.56
13
-1.16
23
-2.24
33
-2.56
0
3DFACE
8
1
10
-1.74
20
-1.06
30
-0.58
11
0.69
21
3.09
31
-0.77
12
-0.18
22
-0.53
32
-2.3
13
-0.18
23
-0.53
33
-2.3
0
3DFACE
8
1
10
-1.51
20
-2.36
30
-2.16
11
-1.74
21
-1.06
31
-0.58
12
-1.16
22
-2.24
32
-2.56
13
-1.16
23
-2.24
33
-2.56
0
3DFACE
8
1
10
-3.19
20
-3.54
30
-0.47
11
-1.74
21
-1.06
31
-0.58
12
-1.51
22
-2.36
32
-2.16
13
-1.51
23
-2.36
33
-2.16
0
3DFACE
8
1
10
-1.98
20
-3.39
30
-2.12
11
-1.51
21
-2.36
31
-2.16
12
-1.49
22
-2.84
32
-2.38
13
-1.49
23
-2.84
33
-2.38
0
3DFACE
8
1
10
-1.98
20
-3.39
30
-2.12
11
-1.51
21
-2.36
31
-2.16
12
-1.49
22
-2.84
32
-2.38
13
-1.7
23
-3.07
33
-2.28
0
3DFACE
8
1
10
-3.81
20
-4.59
30
-0.42
11
-1.98
21
-3.39
31
-2.12
12
-2.17
22
-4.02
32
-2.05
13
-4.19
23
-5.25
33
-0.39
0
3DFACE
8
1
10
-3.81
20
-4.59
30
-0.42
11
-3.19
21
-3.54
31
-0.47
12
-1.51
22
-2.36
32
-2.16
13
-1.98
23
-3.39
33
-2.12
0
ENDSEC
0
EOF
